<svg id="visual" viewBox="0 0 1920 1080" width="1920" height="1080" xmlns="http://www.w3.org/2000/svg" xmlns:xlink="http://www.w3.org/1999/xlink" version="1.1"><rect x="0" y="0" width="1920" height="1080" fill="#1c1c1c"></rect><defs><linearGradient id="grad1_0" x1="43.8%" y1="100%" x2="100%" y2="0%"><stop offset="14.444444444444446%" stop-color="#1c1c1c" stop-opacity="1"></stop><stop offset="85.55555555555554%" stop-color="#1c1c1c" stop-opacity="1"></stop></linearGradient></defs><defs><linearGradient id="grad2_0" x1="0%" y1="100%" x2="56.3%" y2="0%"><stop offset="14.444444444444446%" stop-color="#1c1c1c" stop-opacity="1"></stop><stop offset="85.55555555555554%" stop-color="#1c1c1c" stop-opacity="1"></stop></linearGradient></defs><g transform="translate(1920, 1080)"><path d="M-972 0C-952.8 -84.9 -933.7 -169.8 -888.7 -238.1C-843.6 -306.5 -772.8 -358.3 -730.1 -421.5C-687.3 -484.7 -672.7 -559.4 -640.6 -640.6C-608.6 -721.9 -559.1 -809.7 -486 -841.8C-412.9 -873.8 -316.1 -850.2 -231.1 -862.6C-146.2 -875 -73.1 -923.5 0 -972L0 0Z" fill="#1616DF"></path></g><g transform="translate(0, 0)"><path d="M972 0C914.5 70.6 857 141.2 841.3 225.4C825.6 309.7 851.8 407.5 821.9 474.5C791.9 541.5 705.9 577.6 647 647C588.1 716.4 556.5 818.9 486 841.8C415.5 864.6 306.2 807.8 218.7 816.2C131.2 824.6 65.6 898.3 0 972L0 0Z" fill="#1616DF"></path></g></svg>