<svg id="visual" viewBox="0 0 1920 1080" width="1920" height="1080" xmlns="http://www.w3.org/2000/svg" xmlns:xlink="http://www.w3.org/1999/xlink" version="1.1"><g transform="translate(973.4039031693713 541.6994193808788)"><path d="M239 -391.9C284.8 -342.4 279.7 -233.9 320.5 -146C361.3 -58 447.9 9.4 441.2 64.2C434.4 118.9 334.4 161 264.5 213.6C194.6 266.1 154.9 329.3 94 370C33.1 410.7 -49.1 428.9 -133.7 420.1C-218.3 411.4 -305.3 375.6 -367 313.1C-428.8 250.6 -465.3 161.4 -468.2 73.6C-471 -14.2 -440.2 -100.6 -380.9 -150.5C-321.5 -200.3 -233.8 -213.7 -165.5 -252.9C-97.3 -292.1 -48.7 -357 24 -394.3C96.6 -431.6 193.2 -441.3 239 -391.9" fill="#1c1c1c"></path></g></svg>