<?xml version="1.0" encoding="UTF-8" standalone="no"?>
<svg
   xmlns:dc="http://purl.org/dc/elements/1.1/"
   xmlns:cc="http://creativecommons.org/ns#"
   xmlns:rdf="http://www.w3.org/1999/02/22-rdf-syntax-ns#"
   xmlns:svg="http://www.w3.org/2000/svg"
   xmlns="http://www.w3.org/2000/svg"
   viewBox="0 0 289.53067 334.564"
   height="334.564"
   width="289.53067"
   xml:space="preserve"
   id="svg2"
   version="1.1"><metadata
     id="metadata8"><rdf:RDF><cc:Work
         rdf:about=""><dc:format>image/svg+xml</dc:format><dc:type
           rdf:resource="http://purl.org/dc/dcmitype/StillImage" /></cc:Work></rdf:RDF></metadata><defs
     id="defs6"><clipPath
       id="clipPath18"
       clipPathUnits="userSpaceOnUse"><path
         id="path16"
         d="M 0,250.923 H 217.148 V 0 H 0 Z" /></clipPath></defs><g
     transform="matrix(1.3333333,0,0,-1.3333333,0,334.564)"
     id="g10"><g
       id="g12"><g
         clip-path="url(#clipPath18)"
         id="g14"><g
           transform="translate(42.3862,14.8586)"
           id="g20"><path
             id="path22"
             style="fill:#1c1c1c;fill-opacity:1;fill-rule:nonzero;stroke:none"
             d="m 0,0 c 0,6.225 -4.993,11.452 -11.276,11.452 -6.343,0 -11.335,-5.227 -11.335,-11.452 0,-6.226 4.992,-11.393 11.335,-11.393 C -4.993,-11.393 0,-6.226 0,0 m -26.252,0 v 27.368 h 3.641 V 8.809 c 2.408,3.641 6.637,6.108 11.452,6.108 8.457,0 14.8,-6.519 14.8,-14.917 0,-8.163 -6.402,-14.859 -14.917,-14.859 -8.398,0 -14.976,6.52 -14.976,14.859" /></g><g
           transform="translate(75.3916,16.561)"
           id="g24"><path
             id="path26"
             style="fill:#1c1c1c;fill-opacity:1;fill-rule:nonzero;stroke:none"
             d="M 0,0 C -0.118,5.932 -4.287,9.808 -10.043,9.808 -15.974,9.808 -19.85,5.52 -20.379,0 Z m -24.078,-1.585 c 0,8.222 5.696,14.858 14.035,14.858 8.281,0 13.684,-5.932 13.684,-14.036 v -2.174 h -24.137 c 0.587,-5.813 5.051,-10.101 11.099,-10.101 3.877,0 7.4,1.469 9.455,5.11 l 2.82,-1.527 c -2.585,-4.698 -7.048,-7.048 -12.275,-7.048 -8.397,0 -14.681,6.402 -14.681,14.918" /></g><g
           transform="translate(85.3168,6.3424)"
           id="g28"><path
             id="path30"
             style="fill:#1c1c1c;fill-opacity:1;fill-rule:nonzero;stroke:none"
             d="m 0,0 2.996,1.644 c 1.703,-3.288 4.345,-4.463 7.811,-4.463 3.816,0 6.988,1.644 6.988,4.933 0,7.165 -16.914,2.173 -16.914,12.98 0,4.756 4.346,8.104 9.808,8.104 4.64,0 8.163,-1.997 10.043,-5.403 l -2.995,-1.703 c -1.528,2.878 -3.994,3.7 -6.989,3.7 -3.172,0 -6.226,-1.703 -6.226,-4.64 0,-6.93 16.914,-2.173 16.914,-12.979 0,-5.168 -4.874,-8.398 -10.512,-8.398 C 6.108,-6.225 2.114,-4.17 0,0" /></g><g
           transform="translate(136.7635,16.561)"
           id="g32"><path
             id="path34"
             style="fill:#1c1c1c;fill-opacity:1;fill-rule:nonzero;stroke:none"
             d="M 0,0 C -0.118,5.932 -4.287,9.808 -10.043,9.808 -15.974,9.808 -19.85,5.52 -20.379,0 Z m -24.078,-1.585 c 0,8.222 5.696,14.858 14.035,14.858 8.281,0 13.684,-5.932 13.684,-14.036 v -2.174 h -24.137 c 0.587,-5.813 5.051,-10.101 11.099,-10.101 3.877,0 7.4,1.469 9.456,5.11 l 2.818,-1.527 c -2.584,-4.698 -7.047,-7.048 -12.274,-7.048 -8.398,0 -14.681,6.402 -14.681,14.918" /></g><g
           transform="translate(150.0372,9.9835)"
           id="g36"><path
             id="path38"
             style="fill:#1c1c1c;fill-opacity:1;fill-rule:nonzero;stroke:none"
             d="m 0,0 v 15.857 h -6.049 v 3.289 H 0 v 7.575 H 3.642 V 19.146 H 15.27 V 15.857 H 3.642 V 0.118 c 0,-4.228 2.466,-6.696 6.225,-6.696 2.055,0 3.994,0.764 5.403,1.939 V -8.162 C 13.801,-9.279 11.687,-9.983 9.573,-9.983 3.524,-9.983 0,-6.049 0,0" /></g><g
           transform="translate(197.3726,14.9169)"
           id="g40"><path
             id="path42"
             style="fill:#1c1c1c;fill-opacity:1;fill-rule:nonzero;stroke:none"
             d="M 0,0 C 0,6.225 -4.992,11.393 -11.334,11.393 -17.618,11.393 -22.61,6.225 -22.61,0 c 0,-6.225 4.992,-11.393 11.276,-11.393 C -4.992,-11.393 0,-6.225 0,0 m -26.251,0.059 c 0,8.104 6.401,14.8 14.917,14.8 8.397,0 14.975,-6.46 14.975,-14.8 v -14.33 H 0.177 v 6.636 c -2.174,-4.287 -6.578,-7.224 -11.981,-7.224 -8.222,0 -14.447,6.696 -14.447,14.918" /></g><g
           transform="translate(96.512,118.3598)"
           id="g44"><path
             id="path46"
             style="fill:#1c1c1c;fill-opacity:1;fill-rule:nonzero;stroke:none"
             d="m 0,0 c -2.426,24.989 -5.607,52.047 -8.027,77.014 -0.506,5.197 -1.009,10.431 -0.532,15.631 0.481,5.201 2.008,10.424 5.197,14.555 4.727,6.133 12.587,9.17 20.299,9.872 7.594,0.688 15.672,-0.78 21.605,-5.57 4.846,-3.913 7.879,-9.713 9.525,-15.716 1.646,-6.007 2.027,-12.277 2.396,-18.491 1.273,-21.276 3.307,-44.664 4.58,-65.943 0,-0.037 -0.126,-0.093 -0.348,-0.163 z M 54.651,-3.302 C 52.877,-12.296 50.394,-21.424 44.502,-28.679 35.796,-39.4 21.115,-41.615 8.192,-38.702 c -12.998,2.936 -22.048,11.891 -30.718,21.235 -0.126,0.138 -0.213,0.245 -0.363,0.363 3.839,0.832 11.028,2.432 14.461,3.007 0.299,0.051 0.776,-0.084 1.036,-0.441 3.984,-5.477 10.184,-9.995 16.171,-12.687 6.27,-2.826 13.617,-3.721 20.345,-1.592 3.897,1.233 8.698,4.185 9.995,8.308 0.843,2.676 -0.099,5.817 -2.271,7.594 -2.171,1.774 -5.439,2.074 -7.898,0.726 -1.265,-0.69 -2.29,-1.75 -3.508,-2.519 -5.029,-3.169 -13.38,-2.26 -14.373,3.835 l 1.044,0.288 c 13.988,3.05 28.33,6.038 42.928,9.222 -0.138,-0.658 -0.268,-1.304 -0.39,-1.939 m -132.185,-12.557 -0.599,5.25 c -0.205,1.462 -0.398,3.224 -0.615,5.191 -0.02,0.197 -0.043,0.394 -0.063,0.595 l -0.004,0.031 -0.749,6.401 c -0.953,7.354 -1.639,14.748 -2.199,22.142 -0.445,5.868 -0.954,11.918 -0.532,17.798 0.386,5.372 1.9,10.866 5.482,14.882 8.332,9.329 25.867,10.933 36.122,4.284 9.455,-6.125 11.294,-18.965 12.387,-29.328 1.24,-11.769 2.373,-24.365 3.63,-36.109 0.004,-0.036 0.008,-0.051 0.008,-0.051 l 0.019,-0.182 -0.149,-0.031 -41.093,-8.491 z M 16.815,132.466 C -3.849,131.157 -25.013,113.524 -25.663,91.91 -25.995,80.879 -24.986,70.107 -24.075,58.796 -27.949,69.816 -37.921,77.3 -49.516,78.719 -58.86,79.862 -68.907,77.718 -77.089,73.075 -84.786,68.708 -91.111,61.748 -94.099,53.42 -97,45.341 -96.7,36.505 -96.16,27.936 c 0.977,-15.524 2.68,-30.97 4.958,-46.345 0.603,-4.099 1.249,-8.19 1.935,-12.28 0,0 42.542,8.717 42.904,8.788 2.022,0.387 2.846,0.765 4.868,1.155 0.205,0.04 0.421,0.083 0.622,0.02 0.355,-0.103 0.505,-0.501 0.71,-0.804 15.367,-22.84 36.432,-35.668 59.788,-34.454 6.854,0.358 13.59,2.112 19.805,5.009 19.182,8.947 28.534,30.454 29.91,50.582 l 0.012,0.153 c 0.047,0.718 0.153,1.246 0.417,1.636 0.3,0.438 0.797,0.706 1.644,0.875 5.951,1.178 11.906,3.114 17.948,3.693 2.712,0.264 5.66,0.091 7.824,-1.569 C 96.385,4.246 95.588,4.076 94.784,3.942 84.521,2.236 76.872,-6.585 76.726,-16.895 c -0.079,-5.616 2.037,-10.89 5.577,-14.859 0.019,-0.023 0.039,-0.047 0.063,-0.071 3.511,-3.771 8.323,-6.321 13.719,-6.94 0.012,-0.004 0.028,-0.004 0.039,-0.004 9.988,-0.91 19.127,4.946 22.615,14.291 1.758,4.702 2.136,9.829 1.77,14.839 -0.422,5.801 -1.853,11.614 -4.879,16.584 -6.894,11.323 -19.967,13.247 -32.492,10.204 -4.548,-1.103 -9.136,-2.037 -13.786,-3.058 -0.004,0.067 -0.008,0.134 -0.012,0.201 -0.67,12.182 -1.876,26.753 -2.617,38.896 -0.639,10.452 -0.871,20.928 -1.821,31.36 -0.91,9.991 -1.588,21.007 -7.283,29.571 -8.852,13.314 -25.815,19.296 -40.804,18.347" /></g><g
           transform="translate(129.1553,176.9762)"
           id="g48"><path
             id="path50"
             style="fill:#1c1c1c;fill-opacity:1;fill-rule:nonzero;stroke:none"
             d="m 0,0 c 0,-4.575 -3.709,-8.284 -8.284,-8.284 -4.575,0 -8.283,3.709 -8.283,8.284 0,4.575 3.708,8.284 8.283,8.284 C -3.709,8.284 0,4.575 0,0" /></g><g
           transform="translate(51.2459,152.1252)"
           id="g52"><path
             id="path54"
             style="fill:#1c1c1c;fill-opacity:1;fill-rule:nonzero;stroke:none"
             d="m 0,0 c 0,-4.575 -3.709,-8.284 -8.284,-8.284 -4.575,0 -8.283,3.709 -8.283,8.284 0,4.575 3.708,8.284 8.283,8.284 C -3.709,8.284 0,4.575 0,0" /></g></g></g></g></svg>